PathFileType	3	(X/Y/Z)	C:\Users\koon_\Desktop\
DataRate	CameraRate	NumFrames	NumMarkers	Units	OrigDataRate	OrigDataStartFrame	OrigNumFrames
100.0	100.0	13	27	mm	100.0	1121	4482	
Frame#	Time	get:LFHD			get:RFHD			get:LBHD			get:RBHD			get:C7			get:T10			get:CLAV			get:STRN			get:RBAK			get:LSHO			get:LUPA			get:LELB			get:LFRA			get:LWRA			get:LWRB			get:LFIN			get:RSHO			get:RUPA			get:RELB			get:RFRA			get:RWRA			get:RWRB			get:RFIN			get:LASI			get:RASI			get:LPSI			get:RPSI			
		X1	Y1	Z1	X2	Y2	Z2	X3	Y3	Z3	X4	Y4	Z4	X5	Y5	Z5	X6	Y6	Z6	X7	Y7	Z7	X8	Y8	Z8	X9	Y9	Z9	X10	Y10	Z10	X11	Y11	Z11	X12	Y12	Z12	X13	Y13	Z13	X14	Y14	Z14	X15	Y15	Z15	X16	Y16	Z16	X17	Y17	Z17	X18	Y18	Z18	X19	Y19	Z19	X20	Y20	Z20	X21	Y21	Z21	X22	Y22	Z22	X23	Y23	Z23	X24	Y24	Z24	X25	Y25	Z25	X26	Y26	Z26	X27	Y27	Z27	
1121	11.2	101.87601	1574.8741	-77.790321	-53.438168	1565.4464	-55.951763	79.180351	1565.1833	-200.67998	-48.151993	1568.1973	-201.84962	-1.9314511	1376.3832	-220.22758	-21.274191	1123.8502	-252.2617	50.109833	1302.5386	-42.894539	55.796043	1115.6132	0.24491152	-105.58355	1317.2981	-216.02078	179.5453	1355.4933	-174.77753	237.68915	1209.8364	-182.83145	240.48807	1026.9869	-213.24178	240.8582	930.02979	-128.93959	221.99661	832.93402	-107.83916	267.98026	827.72986	-159.94553	276.53659	751.91583	-112.74854	-102.83072	1389.6532	-97.356636	-99.958397	1324.4891	68.906525	-81.91301	1254.0912	160.21527	3.9017117	1303.2075	206.01694	118.97748	1274.6703	315.34277	56.68507	1256.6677	349.42636	122.38614	1292.5752	395.12445	153.36337	929.27985	-71.718246	-123.16589	914.78192	-36.539314	43.845337	957.75702	-260.76376	-64.425354	948.21899	-245.46475
1122	11.21	101.15674	1575.0848	-77.587074	-54.204777	1565.2515	-55.822403	78.535461	1565.5425	-200.50479	-48.828823	1568.2709	-201.72321	-2.1745877	1376.3151	-220.30386	-21.675949	1124.0209	-251.96429	50.276287	1303.0061	-43.026939	56.132622	1116.1555	0.84877157	-106.0799	1317.307	-215.64098	179.31956	1355.6238	-174.94301	237.19962	1209.9418	-183.07529	240.38271	1027.0549	-212.74864	240.9594	930.37744	-128.19229	222.2296	833.28949	-106.76179	268.06253	827.96503	-158.94757	276.67172	752.24158	-111.50037	-102.06638	1390.7732	-98.064339	-96.748329	1332.281	68.646423	-77.856819	1265.8933	162.38193	9.0814667	1316.6091	204.08647	124.93439	1293.0935	312.87289	64.161453	1277.0553	348.77567	130.36632	1315.2258	391.42471	153.40466	929.29889	-71.365524	-123.10908	914.78625	-36.139942	43.693554	957.84058	-260.46918	-64.535118	948.29547	-245.06888
1123	11.22	100.38661	1575.3081	-77.345764	-54.946953	1565.0477	-55.716446	77.850792	1565.9117	-200.29387	-49.44804	1568.3335	-201.64178	-2.4232843	1376.2061	-220.30865	-22.429193	1124.4282	-250.9256	50.476124	1303.5168	-43.122906	56.554092	1116.7524	1.5188094	-106.51456	1317.3994	-215.19972	179.09515	1355.7164	-175.08612	237.01671	1209.996	-183.09077	240.30452	1027.0806	-212.30667	241.05168	930.67572	-127.42502	222.4117	833.69354	-105.64161	268.12134	828.19214	-157.927	276.94977	752.6261	-110.20409	-101.24443	1391.9536	-98.77951	-93.752914	1339.9391	67.812775	-73.725349	1277.6035	163.91978	14.206283	1329.603	201.44058	130.8911	1310.6199	309.12463	71.586578	1296.7532	347.1716	138.57292	1337.1349	386.71872	153.41801	929.3205	-71.113564	-123.07595	914.81989	-35.658978	43.519547	957.9292	-260.19797	-64.628868	948.38641	-244.63716
1124	11.23	99.607765	1575.5468	-77.102119	-55.731098	1564.9078	-55.570839	77.18782	1566.2561	-200.03932	-50.063335	1568.3708	-201.56305	-2.6511154	1376.0638	-220.20779	-23.017185	1124.6099	-250.31284	50.745239	1304.0748	-43.260761	56.953053	1117.3813	2.1619725	-107.02882	1317.5413	-214.75041	178.86455	1355.8212	-175.17747	236.85367	1210.1154	-183.0376	240.22438	1027.0966	-211.90411	241.15324	931.0376	-126.62886	222.57455	834.07635	-104.45062	268.21307	828.42523	-156.78685	277.08914	753.01385	-108.88321	-100.32771	1393.1431	-99.491821	-90.877342	1347.4304	66.903816	-69.545891	1289.1952	164.90332	19.524471	1342.0977	198.58934	138.1338	1327.3687	305.39996	78.853981	1315.6667	344.75076	146.55551	1358.1116	381.06723	153.51923	929.37543	-70.763504	-122.97955	914.87488	-35.172405	43.36895	958.05017	-259.88663	-64.742081	948.48425	-244.16612
1125	11.24	98.83345	1575.7915	-76.745514	-56.514984	1564.7064	-55.549973	76.560722	1566.593	-199.7708	-50.765442	1568.3354	-201.22752	-2.9010842	1376.0256	-220.18204	-23.469738	1124.8013	-250.28795	50.092621	1304.4071	-44.037395	57.270199	1117.9576	2.6614993	-107.48069	1317.8776	-214.46667	178.65488	1355.9104	-175.23099	236.68558	1210.2012	-182.9567	240.09579	1027.1068	-211.44604	241.25824	931.35736	-125.89885	222.77751	834.50061	-103.21298	268.23993	828.68549	-155.71712	277.28775	753.45636	-107.54546	-99.266533	1394.4469	-100.26815	-88.063972	1354.8525	65.491287	-65.281845	1300.5352	165.43291	24.931355	1354.0758	195.19987	144.83463	1343.4406	300.89645	86.044159	1333.861	341.68561	154.45078	1378.0022	374.81122	153.52884	929.37085	-70.5299	-122.84056	914.93658	-34.659435	43.109226	958.08765	-259.34836	-64.834854	948.46869	-243.52031
1126	11.25	97.989861	1576.0242	-76.45166	-57.332138	1564.4709	-55.436592	75.970047	1566.9387	-199.50409	-51.386921	1568.3263	-201.13388	-3.1166131	1375.9421	-220.02742	-24.208391	1125.0397	-249.05478	50.426697	1304.951	-44.144905	57.628658	1118.537	3.1853609	-107.95059	1318.1384	-214.11952	178.40756	1356.0017	-175.24527	236.50685	1210.3214	-182.80983	239.96762	1027.1444	-211.00528	241.34969	931.70563	-125.09765	222.87589	834.92499	-101.97639	268.23859	828.8667	-154.62564	277.49625	753.93805	-106.0313	-98.255882	1395.749	-101.07119	-85.191284	1361.9639	63.660965	-60.986767	1311.5114	165.38469	30.147564	1365.5016	191.46533	151.40054	1358.6635	296.02939	93.100822	1351.2563	337.98648	162.20329	1396.7319	367.87808	153.58623	929.3783	-70.300056	-122.74489	914.96033	-34.123257	42.865097	958.18298	-258.86288	-64.973145	948.52631	-242.92877
1127	11.26	97.209885	1576.2711	-76.127243	-58.14595	1564.3147	-55.328327	75.342941	1567.2617	-199.22327	-51.94389	1568.3594	-201.15048	-3.3680861	1375.8881	-219.93054	-24.664337	1125.369	-249.12381	51.009167	1305.5404	-44.186356	57.938984	1119.1223	3.6870444	-108.49356	1318.376	-213.54837	178.09438	1356.0803	-175.20705	236.31999	1210.425	-182.63715	239.7941	1027.1777	-210.54944	241.3943	932.04871	-124.20348	222.99736	835.37366	-100.74577	268.20493	829.09491	-153.36227	277.66269	754.42657	-104.57883	-97.251404	1397.1908	-102.05939	-82.444931	1368.7292	61.439182	-56.607262	1322.0117	164.68607	35.407578	1376.3312	187.41685	157.83765	1373.087	290.7402	99.973419	1367.8651	333.66376	169.84937	1414.3884	360.70673	153.61987	929.38654	-70.118088	-122.57931	915.02405	-33.508293	42.608036	958.31128	-258.49875	-65.186241	948.59003	-242.30936
1128	11.27	96.359169	1576.5009	-75.78389	-58.990139	1564.1514	-55.231174	74.780922	1567.5051	-198.89023	-52.546734	1568.3004	-200.96965	-3.5900614	1375.812	-219.75552	-25.497442	1125.6085	-247.92259	51.218414	1306.0852	-44.383492	58.26384	1119.7267	4.1562247	-108.95039	1318.7854	-213.27943	177.81433	1356.1818	-175.11562	236.06935	1210.5701	-182.42888	239.82275	1027.4043	-210.12016	241.37601	932.38513	-123.37934	223.08913	835.85486	-99.441948	268.25418	829.41272	-152.22592	277.86591	755.02393	-102.94641	-96.255676	1398.5225	-103.09935	-79.491684	1375.1815	59.21199	-52.109638	1332.0177	163.73041	40.49659	1386.6017	183.16653	164.1254	1386.7085	285.1214	106.69238	1383.4901	328.80228	177.30991	1430.8232	353.25378	153.70398	929.39618	-69.858437	-122.43431	915.10791	-32.844788	42.312954	958.36938	-257.97083	-65.372574	948.74585	-241.84186
1129	11.28	95.574661	1576.7404	-75.414818	-59.804478	1563.9985	-55.161137	74.166748	1567.7527	-198.62009	-53.192909	1568.285	-200.99364	-3.7924221	1375.74	-219.58876	-26.033651	1125.9768	-247.82846	51.53809	1306.7162	-44.500931	58.524727	1120.3394	4.6286187	-109.4621	1319.1201	-213.00223	177.51721	1356.2382	-174.9913	235.86932	1210.6438	-182.14523	239.47293	1027.2627	-209.49857	241.35367	932.72626	-122.52165	223.17122	836.32892	-98.180611	268.18753	829.5567	-150.90369	277.95987	755.50562	-101.33042	-95.18782	1399.8921	-104.24209	-76.453148	1381.2937	56.845798	-47.56514	1341.392	162.32603	45.598808	1396.1377	178.55873	170.23277	1399.5446	279.21713	113.29778	1398.114	323.65781	184.53484	1446.1411	345.67395	153.78862	929.42249	-69.620338	-122.2159	915.19135	-32.117706	41.94989	958.51086	-257.49939	-65.587212	948.84943	-241.33974
1130	11.29	94.745972	1576.9764	-75.048447	-60.607086	1563.8425	-55.052635	73.511589	1568.0283	-198.25911	-53.825867	1568.2039	-200.64084	-3.9292946	1375.7018	-219.48157	-26.695856	1126.2231	-247.02272	51.661652	1307.335	-44.698196	58.861156	1120.9021	5.1317005	-109.9447	1319.462	-212.69585	177.28645	1356.319	-174.84235	235.87456	1210.7791	-181.69528	239.32878	1027.2504	-208.96184	241.27446	933.08093	-121.61033	223.18906	836.7749	-96.789162	268.15179	829.78912	-149.62758	278.16367	756.0788	-99.684235	-94.179893	1401.1106	-105.45453	-73.318535	1387.0627	54.218098	-43.139572	1350.1317	160.48349	50.54361	1405.0021	173.7301	176.26172	1411.5488	273.10077	119.75103	1411.7372	318.27423	191.44473	1460.2949	337.91898	153.85013	929.43097	-69.380096	-122.01438	915.25885	-31.452585	41.64452	958.62146	-257.01953	-65.823891	948.88391	-240.65062
1131	11.3	93.889023	1577.1711	-74.666069	-61.530334	1563.6847	-54.953533	72.943649	1568.3109	-197.86273	-54.375599	1568.23	-200.58022	-4.1129532	1375.6586	-219.39763	-27.378262	1126.3529	-246.21851	51.960926	1307.9658	-44.816639	59.17041	1121.3987	5.6221919	-110.37164	1319.7206	-212.39668	176.96722	1356.4154	-174.70798	235.68512	1210.8368	-181.37383	239.42943	1027.387	-208.39038	241.16547	933.36621	-120.71117	223.16393	837.15619	-95.564369	268.17291	830.07458	-148.29443	278.18738	756.50623	-98.026413	-93.294426	1402.3236	-106.66321	-69.937546	1392.2317	51.081993	-38.705299	1358.2271	158.45772	55.593327	1413.2469	168.47028	181.99133	1422.6938	266.6636	125.89528	1424.5509	313.12213	198.20978	1473.3047	330.03998	153.96146	929.48444	-69.109558	-121.81609	915.32074	-30.757706	41.33252	958.73969	-256.51035	-66.126686	948.92889	-239.82718
1132	11.31	93.034126	1577.3893	-74.226105	-62.35582	1563.495	-54.778996	72.308113	1568.6244	-197.51276	-54.986908	1568.2172	-200.40414	-4.2977161	1375.5021	-219.12267	-27.908518	1126.698	-245.69479	52.247662	1308.5875	-44.84927	59.35569	1121.9978	6.2109575	-110.77048	1320.0759	-212.22717	177.04227	1356.3645	-174.47577	235.46466	1210.851	-180.97803	238.98291	1027.2113	-207.76083	241.04184	933.60645	-119.76857	223.1315	837.51819	-94.174866	268.08057	830.24292	-147.02391	278.30856	757	-96.394104	-92.420174	1403.4783	-107.79652	-67.152626	1397.0398	49.046646	-34.371635	1365.431	156.23328	59.889233	1420.5095	163.98549	187.65984	1432.9276	259.95087	132.06682	1435.8055	307.06439	204.71271	1485.1713	322.10068	154.05684	929.52448	-68.870911	-121.58443	915.40576	-30.025673	40.919422	958.758	-255.84689	-66.376106	949.01801	-239.22522
1133	11.32	92.161819	1577.5645	-73.759598	-63.243328	1563.2672	-54.740406	71.722839	1568.9232	-197.12384	-55.596306	1568.1901	-200.30917	-4.4214993	1375.4453	-219.06712	-28.634819	1126.8412	-244.44901	52.384899	1309.0081	-44.953175	59.594418	1122.5226	6.9030442	-111.12107	1320.3724	-212.0623	176.7973	1356.3607	-174.31827	235.24745	1210.8768	-180.54915	238.85703	1027.1901	-207.02573	240.93132	933.84338	-118.71058	223.03564	837.82788	-92.87941	267.96051	830.36328	-145.66687	278.28604	757.41199	-94.754425	-91.678535	1404.5348	-108.73962	-64.297516	1401.2533	46.326981	-30.153324	1371.9476	153.80382	64.319504	1427.0929	159.03088	193.27368	1442.1029	253.07333	138.15309	1445.8845	300.80704	211.04308	1495.7625	313.99304	154.14899	929.5542	-68.614487	-121.41491	915.47003	-29.35677	40.526119	958.89941	-255.41409	-66.609337	949.17102	-238.55847
